<svg id="visual" viewBox="0 0 1920 450" width="1920" height="450" xmlns="http://www.w3.org/2000/svg" xmlns:xlink="http://www.w3.org/1999/xlink" version="1.1"><g stroke-width="1" stroke-linejoin="bevel"><path d="M973 152L1021 165L987 38.5Z" fill="#9eb47d" stroke="#9eb47d"></path><path d="M1021 165L1094 126.5L987 38.5Z" fill="#154b51" stroke="#154b51"></path><path d="M1094 126.5L1022 0L987 38.5Z" fill="#00101c" stroke="#00101c"></path><path d="M1022 0L931 0L987 38.5Z" fill="#154b51" stroke="#154b51"></path><path d="M987 38.5L931 0L973 152Z" fill="#c6c787" stroke="#c6c787"></path><path d="M931 0L899 178L973 152Z" fill="#9eb47d" stroke="#9eb47d"></path><path d="M973 152L1036 299.5L1021 165Z" fill="#79a076" stroke="#79a076"></path><path d="M1021 165L1178 196L1094 126.5Z" fill="#79a076" stroke="#79a076"></path><path d="M1094 126.5L1247 0L1022 0Z" fill="#154b51" stroke="#154b51"></path><path d="M1036 299.5L1178 196L1021 165Z" fill="#08232f" stroke="#08232f"></path><path d="M899 178L1036 299.5L973 152Z" fill="#588b70" stroke="#588b70"></path><path d="M931 0L817 0L899 178Z" fill="#588b70" stroke="#588b70"></path><path d="M783 171.5L806 201L899 178Z" fill="#08232f" stroke="#08232f"></path><path d="M899 178L920 403.5L1036 299.5Z" fill="#588b70" stroke="#588b70"></path><path d="M758 98.5L783 171.5L899 178Z" fill="#3c7668" stroke="#3c7668"></path><path d="M1128 350.5L1250 188.5L1178 196Z" fill="#9eb47d" stroke="#9eb47d"></path><path d="M1275 47.5L1247 0L1094 126.5Z" fill="#08232f" stroke="#08232f"></path><path d="M1275 47.5L1094 126.5L1178 196Z" fill="#588b70" stroke="#588b70"></path><path d="M817 0L758 98.5L899 178Z" fill="#25615e" stroke="#25615e"></path><path d="M1275 47.5L1255 0L1247 0Z" fill="#0c3741" stroke="#0c3741"></path><path d="M1250 188.5L1275 47.5L1178 196Z" fill="#3c7668" stroke="#3c7668"></path><path d="M1095 450L1128 350.5L1036 299.5Z" fill="#f2d895" stroke="#f2d895"></path><path d="M1036 299.5L1128 350.5L1178 196Z" fill="#79a076" stroke="#79a076"></path><path d="M817 0L726 0L758 98.5Z" fill="#00101c" stroke="#00101c"></path><path d="M796 333.5L899 178L806 201Z" fill="#0c3741" stroke="#0c3741"></path><path d="M796 333.5L920 403.5L899 178Z" fill="#08232f" stroke="#08232f"></path><path d="M693 291.5L796 333.5L806 201Z" fill="#0c3741" stroke="#0c3741"></path><path d="M693 291.5L806 201L783 171.5Z" fill="#9eb47d" stroke="#9eb47d"></path><path d="M693 291.5L783 171.5L634 261Z" fill="#00101c" stroke="#00101c"></path><path d="M846 450L955 450L920 403.5Z" fill="#79a076" stroke="#79a076"></path><path d="M920 403.5L955 450L1036 299.5Z" fill="#25615e" stroke="#25615e"></path><path d="M955 450L1095 450L1036 299.5Z" fill="#79a076" stroke="#79a076"></path><path d="M1396 263.5L1368 205L1250 188.5Z" fill="#588b70" stroke="#588b70"></path><path d="M1396 263.5L1250 188.5L1280 450Z" fill="#588b70" stroke="#588b70"></path><path d="M1250 188.5L1368 205L1275 47.5Z" fill="#f2d895" stroke="#f2d895"></path><path d="M1275 47.5L1423 0L1255 0Z" fill="#588b70" stroke="#588b70"></path><path d="M634 261L783 171.5L758 98.5Z" fill="#0c3741" stroke="#0c3741"></path><path d="M796 333.5L846 450L920 403.5Z" fill="#3c7668" stroke="#3c7668"></path><path d="M691 450L846 450L796 333.5Z" fill="#0c3741" stroke="#0c3741"></path><path d="M551 99.5L634 261L758 98.5Z" fill="#154b51" stroke="#154b51"></path><path d="M693 291.5L691 450L796 333.5Z" fill="#9eb47d" stroke="#9eb47d"></path><path d="M1258 450L1250 188.5L1128 350.5Z" fill="#00101c" stroke="#00101c"></path><path d="M1448 47.5L1275 47.5L1368 205Z" fill="#0c3741" stroke="#0c3741"></path><path d="M1448 47.5L1423 0L1275 47.5Z" fill="#9eb47d" stroke="#9eb47d"></path><path d="M1095 450L1258 450L1128 350.5Z" fill="#08232f" stroke="#08232f"></path><path d="M1472 181L1448 47.5L1368 205Z" fill="#00101c" stroke="#00101c"></path><path d="M1258 450L1280 450L1250 188.5Z" fill="#79a076" stroke="#79a076"></path><path d="M726 0L551 99.5L758 98.5Z" fill="#79a076" stroke="#79a076"></path><path d="M568 0L551 99.5L726 0Z" fill="#25615e" stroke="#25615e"></path><path d="M1280 450L1428 306.5L1396 263.5Z" fill="#9eb47d" stroke="#9eb47d"></path><path d="M1396 263.5L1472 181L1368 205Z" fill="#08232f" stroke="#08232f"></path><path d="M541 180L579 268.5L634 261Z" fill="#0c3741" stroke="#0c3741"></path><path d="M634 261L601 450L693 291.5Z" fill="#25615e" stroke="#25615e"></path><path d="M1428 306.5L1472 181L1396 263.5Z" fill="#588b70" stroke="#588b70"></path><path d="M601 450L691 450L693 291.5Z" fill="#25615e" stroke="#25615e"></path><path d="M551 99.5L541 180L634 261Z" fill="#0c3741" stroke="#0c3741"></path><path d="M541 180L546 283.5L579 268.5Z" fill="#79a076" stroke="#79a076"></path><path d="M579 268.5L601 450L634 261Z" fill="#3c7668" stroke="#3c7668"></path><path d="M1280 450L1375 450L1428 306.5Z" fill="#0c3741" stroke="#0c3741"></path><path d="M568 0L490 39.5L551 99.5Z" fill="#79a076" stroke="#79a076"></path><path d="M551 99.5L490 39.5L541 180Z" fill="#154b51" stroke="#154b51"></path><path d="M353 307.5L446 450L546 283.5Z" fill="#79a076" stroke="#79a076"></path><path d="M568 0L482 0L490 39.5Z" fill="#08232f" stroke="#08232f"></path><path d="M546 283.5L601 450L579 268.5Z" fill="#25615e" stroke="#25615e"></path><path d="M1592 177.5L1572 0L1448 47.5Z" fill="#3c7668" stroke="#3c7668"></path><path d="M1448 47.5L1572 0L1423 0Z" fill="#08232f" stroke="#08232f"></path><path d="M1592 177.5L1448 47.5L1472 181Z" fill="#c6c787" stroke="#c6c787"></path><path d="M1592 177.5L1472 181L1428 306.5Z" fill="#25615e" stroke="#25615e"></path><path d="M1649 250.5L1592 177.5L1428 306.5Z" fill="#79a076" stroke="#79a076"></path><path d="M1375 450L1498 450L1428 306.5Z" fill="#79a076" stroke="#79a076"></path><path d="M1498 450L1543 402.5L1428 306.5Z" fill="#154b51" stroke="#154b51"></path><path d="M1649 250.5L1624 165L1592 177.5Z" fill="#588b70" stroke="#588b70"></path><path d="M1592 177.5L1624 165L1572 0Z" fill="#08232f" stroke="#08232f"></path><path d="M1624 165L1642 0L1572 0Z" fill="#154b51" stroke="#154b51"></path><path d="M1543 402.5L1649 250.5L1428 306.5Z" fill="#f2d895" stroke="#f2d895"></path><path d="M1624 165L1741 120.5L1642 0Z" fill="#25615e" stroke="#25615e"></path><path d="M343 237L546 283.5L541 180Z" fill="#00101c" stroke="#00101c"></path><path d="M546 283.5L446 450L601 450Z" fill="#0c3741" stroke="#0c3741"></path><path d="M343 237L541 180L315 100.5Z" fill="#f2d895" stroke="#f2d895"></path><path d="M315 100.5L541 180L490 39.5Z" fill="#f2d895" stroke="#f2d895"></path><path d="M343 237L353 307.5L546 283.5Z" fill="#c6c787" stroke="#c6c787"></path><path d="M482 0L315 100.5L490 39.5Z" fill="#588b70" stroke="#588b70"></path><path d="M343 237L291 286L353 307.5Z" fill="#c6c787" stroke="#c6c787"></path><path d="M482 0L300 0L315 100.5Z" fill="#154b51" stroke="#154b51"></path><path d="M291 286L375 450L353 307.5Z" fill="#154b51" stroke="#154b51"></path><path d="M353 307.5L375 450L446 450Z" fill="#3c7668" stroke="#3c7668"></path><path d="M1752 308L1741 120.5L1649 250.5Z" fill="#0c3741" stroke="#0c3741"></path><path d="M1649 250.5L1741 120.5L1624 165Z" fill="#154b51" stroke="#154b51"></path><path d="M203 143.5L343 237L315 100.5Z" fill="#79a076" stroke="#79a076"></path><path d="M203 143.5L291 286L343 237Z" fill="#08232f" stroke="#08232f"></path><path d="M1728 450L1649 250.5L1543 402.5Z" fill="#08232f" stroke="#08232f"></path><path d="M1728 450L1752 308L1649 250.5Z" fill="#f2d895" stroke="#f2d895"></path><path d="M1498 450L1728 450L1543 402.5Z" fill="#79a076" stroke="#79a076"></path><path d="M1741 120.5L1816 96.5L1642 0Z" fill="#f2d895" stroke="#f2d895"></path><path d="M1833 251L1816 96.5L1741 120.5Z" fill="#c6c787" stroke="#c6c787"></path><path d="M1833 251L1741 120.5L1752 308Z" fill="#9eb47d" stroke="#9eb47d"></path><path d="M183 49.5L203 143.5L315 100.5Z" fill="#588b70" stroke="#588b70"></path><path d="M291 286L197 450L375 450Z" fill="#25615e" stroke="#25615e"></path><path d="M1728 450L1753 450L1752 308Z" fill="#3c7668" stroke="#3c7668"></path><path d="M300 0L183 49.5L315 100.5Z" fill="#588b70" stroke="#588b70"></path><path d="M192 0L183 49.5L300 0Z" fill="#9eb47d" stroke="#9eb47d"></path><path d="M1856 331.5L1833 251L1752 308Z" fill="#00101c" stroke="#00101c"></path><path d="M1920 0L1855 0L1816 96.5Z" fill="#08232f" stroke="#08232f"></path><path d="M1816 96.5L1855 0L1642 0Z" fill="#3c7668" stroke="#3c7668"></path><path d="M192 0L164 0L183 49.5Z" fill="#588b70" stroke="#588b70"></path><path d="M43 158L146 301.5L203 143.5Z" fill="#588b70" stroke="#588b70"></path><path d="M1753 450L1856 331.5L1752 308Z" fill="#588b70" stroke="#588b70"></path><path d="M1920 169.5L1920 141L1816 96.5Z" fill="#25615e" stroke="#25615e"></path><path d="M146 301.5L291 286L203 143.5Z" fill="#588b70" stroke="#588b70"></path><path d="M163 370.5L197 450L291 286Z" fill="#154b51" stroke="#154b51"></path><path d="M43 158L203 143.5L183 49.5Z" fill="#3c7668" stroke="#3c7668"></path><path d="M146 301.5L163 370.5L291 286Z" fill="#9eb47d" stroke="#9eb47d"></path><path d="M1920 169.5L1816 96.5L1833 251Z" fill="#c6c787" stroke="#c6c787"></path><path d="M1920 312.5L1920 169.5L1833 251Z" fill="#3c7668" stroke="#3c7668"></path><path d="M1920 141L1920 0L1816 96.5Z" fill="#25615e" stroke="#25615e"></path><path d="M1920 450L1920 312.5L1856 331.5Z" fill="#00101c" stroke="#00101c"></path><path d="M1856 331.5L1920 312.5L1833 251Z" fill="#25615e" stroke="#25615e"></path><path d="M0 0L43 158L183 49.5Z" fill="#00101c" stroke="#00101c"></path><path d="M0 421.5L38 450L163 370.5Z" fill="#9eb47d" stroke="#9eb47d"></path><path d="M163 370.5L38 450L197 450Z" fill="#00101c" stroke="#00101c"></path><path d="M1753 450L1920 450L1856 331.5Z" fill="#154b51" stroke="#154b51"></path><path d="M0 0L0 136.5L43 158Z" fill="#c6c787" stroke="#c6c787"></path><path d="M43 158L0 250L146 301.5Z" fill="#00101c" stroke="#00101c"></path><path d="M164 0L0 0L183 49.5Z" fill="#3c7668" stroke="#3c7668"></path><path d="M0 136.5L0 250L43 158Z" fill="#0c3741" stroke="#0c3741"></path><path d="M0 421.5L163 370.5L146 301.5Z" fill="#00101c" stroke="#00101c"></path><path d="M0 250L0 421.5L146 301.5Z" fill="#00101c" stroke="#00101c"></path><path d="M0 421.5L0 450L38 450Z" fill="#3c7668" stroke="#3c7668"></path></g></svg>